Coordinates
version=1
nRows=6
nColumns=36
inDegrees=yes

Units are S.I. units (second, meters, Newtons, ...)
If the header above contains a line with 'inDegrees', this indicates whether rotational values are in degrees (yes) or radians (no).

endheader
time	pelvis_tilt	pelvis_list	pelvis_rotation	pelvis_tx	pelvis_ty	pelvis_tz	hip_flexion_r	hip_adduction_r	hip_rotation_r	knee_angle_r	knee_angle_r_beta	ankle_angle_r	subtalar_angle_r	mtp_angle_r	hip_flexion_l	hip_adduction_l	hip_rotation_l	knee_angle_l	knee_angle_l_beta	ankle_angle_l	subtalar_angle_l	mtp_angle_l	lumbar_extension	lumbar_bending	lumbar_rotation	arm_flex_r	arm_add_r	arm_rot_r	elbow_flex_r	pro_sup_r	arm_flex_l	arm_add_l	arm_rot_l	elbow_flex_l	pro_sup_l
     14.95000000	     -4.01542988	      0.90852761	     -1.00429737	      0.64887659	      0.81527042	      0.71426854	     31.89496257	     -1.16159749	     -1.18789239	     40.26304611	      0.70272272	      8.16299139	     -8.50862887	     -7.49999987	      4.39352167	      4.36416182	      4.50851560	     13.77480045	      0.24041562	     17.42387700	     -0.91534927	     -7.49999987	     -4.22805857	     -1.55059855	     -5.45950033	      0.92373238	    -12.23855100	      4.44368388	     13.11402539	     95.08618455	      9.23951093	    -14.75970008	      6.98704126	     14.15522272	     90.59391133
     14.96666670	     -5.14965762	      0.83199394	     -0.30626946	      0.64514805	      0.81050203	      0.71118083	     33.78199656	     -1.52627152	     -1.54420963	     35.87304542	      0.62610276	      8.22971132	     -7.75822676	     -7.49999987	      4.13800651	      4.40836249	      4.55427239	     13.59311692	      0.23724465	     18.25026102	     -0.53765049	     -7.49999987	     -2.36896575	     -1.39592314	     -6.61924437	      0.13937985	    -12.31162449	      3.97982043	     12.55546416	     94.24335954	      9.10567928	    -15.18921725	      6.49128040	     14.39700552	     89.95322804
     14.98333330	     -6.19964761	      0.57985724	      0.49930446	      0.63961985	      0.80584012	      0.70741758	     35.48082999	     -1.74893608	     -1.78451053	     31.11220033	      0.54301033	      8.05098469	     -7.21254015	     -7.49999987	      3.82588977	      4.28803117	      4.34070212	     13.41853197	      0.23419756	     19.18409636	      1.00519836	     -7.49999987	     -0.80417176	     -1.02683822	     -7.81414733	     -0.23114931	    -12.39927757	      3.18026588	     11.40867679	     94.98303964	      9.14914039	    -15.58415418	      6.21577432	     14.93005150	     91.00415542
     15.00000000	     -7.34807533	      0.36949844	      1.18118364	      0.63451624	      0.80162502	      0.70403009	     37.21528317	     -1.99896752	     -1.67409096	     26.07272452	      0.45505489	      7.87951938	     -6.43101860	     -7.49999987	      3.61392554	      4.28054065	      4.43451387	     13.18628388	      0.23014407	     19.70274375	      1.88649900	     -7.49999987	      0.70233311	     -0.65714755	     -8.81220480	     -0.66336640	    -12.62154190	      2.67878234	     10.81069293	     93.72681771	      9.39145364	    -15.76233167	      5.98119742	     15.09649479	     90.05788934
     15.01666670	     -8.25477792	      0.14049984	      1.71123822	      0.63127331	      0.79865800	      0.70191911	     38.46307754	     -2.19422235	     -1.28964378	     20.60169778	      0.35956746	      7.40761137	     -5.84326448	     -7.49999987	      3.15410099	      4.18677179	      4.41146273	     13.04785382	      0.22772801	     20.12104341	      2.94151094	     -7.49999987	      1.72025600	     -0.21253398	     -9.69799193	     -0.74475530	    -12.87175749	      2.44610782	     10.03971545	     93.44111562	      9.56758723	    -16.04270591	      6.66338640	     15.55003254	     89.81525346
     15.03333330	     -8.88425507	      0.05467423	      1.99860345	      0.63063635	      0.79681655	      0.70149412	     39.26741154	     -2.47787085	     -0.86344968	     15.21602373	      0.26556971	      7.13756374	     -4.71808644	     -7.49999987	      2.33907886	      4.15438878	      4.29081338	     12.97561978	      0.22646729	     20.23134310	      3.62808613	     -7.49999987	      2.39226264	      0.12085443	    -10.21271231	     -0.82922049	    -13.10252349	      2.02939381	      9.34908178	     94.32647975	      9.82702902	    -16.22713148	      7.48835259	     15.59880049	     90.37772716
